<svg width="62" height="74" viewBox="0 0 62 74" fill="none" xmlns="http://www.w3.org/2000/svg">
<path d="M30.8166 0C39.9879 0 47.5279 7.70026 47.9106 17.4573H47.8212C47.8319 17.7409 47.7809 18.0234 47.6722 18.2825H48.2065C52.3713 18.2825 56.7325 21.3668 58.4812 28.8125L58.6712 29.691L61.3025 52.3418C63.1961 66.7887 55.7986 72.8641 45.7074 73.1214L45.0308 73.13H16.661C6.40557 73.13 -1.49706 69.137 0.240514 53.3248L0.359003 52.3418L3.02056 29.691C4.33297 21.6728 8.73893 18.5101 12.9842 18.2944L13.4551 18.2825H13.7226C13.6775 18.0095 13.6775 17.7303 13.7226 17.4573C14.1053 7.70026 21.6453 0 30.8166 0ZM20.8651 30.456C19.1947 30.456 17.8406 31.9452 17.8406 33.7822C17.8406 35.6191 19.1947 37.1083 20.8651 37.1083C22.5354 37.1083 23.8896 35.6191 23.8896 33.7822L23.866 33.3649C23.6794 31.7249 22.407 30.456 20.8651 30.456ZM40.6755 30.456C39.0051 30.456 37.651 31.9452 37.651 33.7822C37.651 35.6191 39.0051 37.1083 40.6755 37.1083C42.3459 37.1083 43.7 35.6191 43.7 33.7822C43.7 31.9452 42.3459 30.456 40.6755 30.456ZM30.6825 4.76217C24.0978 4.76217 18.7599 10.446 18.7599 17.4573C18.805 17.7303 18.805 18.0095 18.7599 18.2825H42.7541C42.6589 18.019 42.6084 17.7396 42.6051 17.4573C42.6051 10.446 37.2671 4.76217 30.6825 4.76217Z" fill="black"/>
</svg>
