<svg width="50" height="50" viewBox="0 0 50 50" fill="none" xmlns="http://www.w3.org/2000/svg">
<path d="M8.14763 1.33031L12.7235 0.288596C14.8064 -0.186373 17.0469 -0.072185 19.0267 0.609845C21.0064 1.29188 22.5901 2.49513 23.4822 3.995L26.3297 8.7827C27.0969 10.0725 27.3107 11.5114 26.9409 12.8977C26.5711 14.2839 25.6363 15.5479 24.2678 16.5122L19.2923 20.0186C19.2308 20.062 19.1803 20.1135 19.1434 20.1707C18.6224 20.9749 19.4135 23.1229 21.8917 26.3689C24.6868 30.0273 26.8451 31.4732 27.8457 31.2503L34.3759 29.7398C36.1643 29.3271 38.0788 29.3476 39.8509 29.7986C41.6231 30.2495 43.1642 31.1083 44.2581 32.2545L48.3047 36.4901C49.5751 37.82 50.1636 39.4533 49.9608 41.0865C49.758 42.7196 48.7777 44.2416 47.202 45.3696L43.7206 47.8593C42.5099 48.7261 41.0398 49.3586 39.4356 49.7029C37.8315 50.0471 36.1409 50.093 34.5083 49.8365C24.8136 48.3114 16.1278 42.4112 8.37642 32.2649C0.622323 22.1124 -1.79515 13.4662 1.31972 6.35552C1.84114 5.16506 2.73402 4.08695 3.92292 3.21229C5.11183 2.33764 6.56182 1.69213 8.15039 1.33031H8.14763ZM9.34396 4.3221C8.39078 4.53909 7.52071 4.92631 6.80727 5.45103C6.09383 5.97575 5.55799 6.62256 5.24501 7.33681C2.56016 13.4641 4.73505 21.2478 11.9571 30.7024C19.1737 40.1507 26.9967 45.4634 35.349 46.776C36.3291 46.93 37.3439 46.9024 38.3068 46.6956C39.2697 46.4888 40.1521 46.1089 40.8786 45.5884L44.3573 43.1008C45.2061 42.4936 45.7343 41.6741 45.8438 40.7946C45.9533 39.9152 45.6367 39.0356 44.9527 38.3194L40.9062 34.0817C40.3172 33.4646 39.4876 33.0023 38.5336 32.7594C37.5796 32.5166 36.5489 32.5054 35.5861 32.7275L29.0393 34.2421C25.4172 35.0567 22.0102 32.7754 18.3109 27.9293C15.1768 23.8292 14.0907 20.8665 15.4304 18.7977C15.6895 18.3977 16.0423 18.0373 16.4723 17.7331L21.4479 14.2267C22.1851 13.7075 22.6886 13.0268 22.8879 12.2802C23.0871 11.5336 22.972 10.7586 22.5587 10.064L19.7112 5.27839C19.2309 4.47056 18.378 3.82249 17.3118 3.4552C16.2455 3.08791 15.0388 3.02651 13.917 3.28247L9.3412 4.32418L9.34396 4.3221Z" fill="#E58411"/>
</svg>
