<svg width="53" height="50" viewBox="0 0 53 50" fill="none" xmlns="http://www.w3.org/2000/svg">
<ellipse cx="26.0965" cy="25" rx="26.0965" ry="25" fill="#E58411"/>
<path d="M34.1399 37.998C34.0136 38.1855 33.8677 38.3784 33.702 38.5767L33.2051 39.1717C32.8467 39.5928 32.3958 40.0479 31.8527 40.5369C31.296 41.0382 30.5477 41.4906 29.608 41.8942C28.6561 42.2842 27.6585 42.4325 26.6155 42.339C24.3744 42.1439 22.1047 40.77 19.8062 38.2172L19.4803 11.1082C19.8468 10.5322 20.4375 9.87745 21.2522 9.14389C22.0534 8.42254 22.9428 7.86749 23.9206 7.47885C24.8848 7.10249 25.9006 6.97455 26.9682 7.09517C29.2852 7.32012 31.5441 8.65473 33.7448 11.0988L34.0115 37.8555L34.1399 37.998Z" fill="black"/>
<path d="M9.61528 27.2803C9.87305 26.3106 10.5452 25.3367 11.6315 24.3586C13.3348 22.5644 15.7936 21.9632 18.1297 22.5644L18.4549 37.0978L9.61528 27.2803Z" fill="black"/>
<path d="M43.5897 27.2804C43.3319 26.3107 42.6598 25.3368 41.5735 24.3587C39.8702 22.5645 37.4113 21.9634 35.0752 22.5645L34.7501 37.0978L43.5897 27.2804Z" fill="black"/>
</svg>
