<svg width="55" height="50" viewBox="0 0 55 50" fill="none" xmlns="http://www.w3.org/2000/svg">
<path d="M51.0714 0H3.92857C2.88665 0 1.8874 0.526784 1.15065 1.46447C0.413902 2.40215 0 3.67392 0 5V45C0 46.3261 0.413902 47.5979 1.15065 48.5355C1.8874 49.4732 2.88665 50 3.92857 50H51.0714C52.1134 50 53.1126 49.4732 53.8493 48.5355C54.5861 47.5979 55 46.3261 55 45V5C55 3.67392 54.5861 2.40215 53.8493 1.46447C53.1126 0.526784 52.1134 0 51.0714 0ZM46.75 5L27.5 21.95L8.25 5H46.75ZM3.92857 45V7.275L26.3804 27.05C26.7092 27.3403 27.0998 27.4959 27.5 27.4959C27.9002 27.4959 28.2908 27.3403 28.6196 27.05L51.0714 7.275V45H3.92857Z" fill="#E58411"/>
</svg>
