<svg width="84" height="74" viewBox="0 0 84 74" fill="none" xmlns="http://www.w3.org/2000/svg">
<path d="M4.14844 27.7031C4.00781 27.1406 3.89062 26.5312 3.79688 25.875L3.51562 23.9062C3.32812 22.5 3.23438 20.8594 3.23438 18.9844C3.23438 17.0625 3.65625 14.8594 4.5 12.375C5.39062 9.89062 6.82031 7.73438 8.78906 5.90625C13.0078 1.96875 19.5234 0 28.3359 0L80.5781 45.9141C81.0469 47.6016 81.2812 49.8516 81.2812 52.6641C81.2812 55.4297 80.8125 58.0781 79.875 60.6094C78.9375 63.0938 77.4375 65.25 75.375 67.0781C70.9688 71.1094 64.5469 73.125 56.1094 73.125L4.64062 27.7031H4.14844ZM81.7734 0.703125C83.1797 2.85938 83.8828 5.8125 83.8828 9.5625C83.8828 16.5 81.2812 21.6797 76.0781 25.1016L47.8828 0.703125H81.7734ZM2.10938 72.4219C0.703125 70.2656 0 67.3125 0 63.5625C0 56.6719 2.57812 51.5156 7.73438 48.0938L36 72.4219H2.10938Z" fill="#548D29"/>
</svg>
