<svg width="53" height="50" viewBox="0 0 53 50" fill="none" xmlns="http://www.w3.org/2000/svg">
<ellipse cx="26.0965" cy="25" rx="26.0965" ry="25" transform="rotate(-180 26.0965 25)" fill="#E58411"/>
<path d="M18.0531 12.002C18.1794 11.8145 18.3254 11.6216 18.491 11.4233L18.9879 10.8283C19.3464 10.4072 19.7972 9.95211 20.3404 9.46307C20.8971 8.96178 21.6453 8.50937 22.585 8.10579C23.537 7.71579 24.5345 7.56752 25.5776 7.661C27.8186 7.85608 30.0883 9.23001 32.3869 11.7828L32.7128 38.8918C32.3462 39.4678 31.7556 40.1226 30.9408 40.8561C30.1397 41.5775 29.2502 42.1325 28.2725 42.5211C27.3082 42.8975 26.2924 43.0255 25.2249 42.9048C22.9078 42.6799 20.649 41.3453 18.4482 38.9012L18.1815 12.1445L18.0531 12.002Z" fill="black"/>
<path d="M42.5778 22.7197C42.32 23.6894 41.6479 24.6633 40.5616 25.6414C38.8582 27.4356 36.3994 28.0368 34.0633 27.4356L33.7382 12.9022L42.5778 22.7197Z" fill="black"/>
<path d="M8.60336 22.7196C8.86114 23.6893 9.53326 24.6632 10.6196 25.6413C12.3229 27.4355 14.7817 28.0366 17.1178 27.4355L17.443 12.9022L8.60336 22.7196Z" fill="black"/>
</svg>
